<svg xmlns="http://www.w3.org/2000/svg" width="50" height="50" viewBox="0 0 50 50" version="1.1"><path d="" stroke="none" fill="#080404" fill-rule="evenodd"/><path d="M 15.500 3.879 C -2.500 12.136, -2.500 37.864, 15.500 46.121 C 20.701 48.507, 29.299 48.507, 34.500 46.121 C 52.500 37.864, 52.500 12.136, 34.500 3.879 C 29.299 1.493, 20.701 1.493, 15.500 3.879 M 20.358 4.932 C 2.486 9.317, -1.157 33.377, 14.649 42.640 C 32.692 53.214, 53.214 32.692, 42.640 14.649 C 38.276 7.201, 28.495 2.936, 20.358 4.932 M 10 13.953 C 10 14.477, 11.639 15.358, 13.641 15.911 C 15.644 16.464, 18.342 17.912, 19.637 19.129 C 22.111 21.453, 23.658 21.156, 22.657 18.549 C 21.298 15.007, 10 10.904, 10 13.953 M 31.216 15.009 C 27.914 17.023, 26.215 19.549, 27.380 20.714 C 27.726 21.059, 29.068 20.346, 30.363 19.129 C 31.658 17.912, 34.356 16.464, 36.359 15.911 C 38.361 15.358, 40 14.477, 40 13.953 C 40 12.287, 34.621 12.934, 31.216 15.009 M 14.250 19.662 C 12.309 20.446, 12.765 22.431, 15.471 24.972 C 17.520 26.898, 18.202 27.077, 19.471 26.024 C 21.463 24.371, 21.404 23.811, 18.961 21.189 C 16.868 18.942, 16.406 18.792, 14.250 19.662 M 31.039 21.189 C 28.590 23.817, 28.535 24.370, 30.557 26.048 C 31.868 27.135, 32.528 26.926, 34.727 24.727 C 36.926 22.528, 37.135 21.868, 36.048 20.557 C 34.324 18.481, 33.460 18.590, 31.039 21.189 M 13 31.566 C 13 40.481, 31.558 43.300, 35.970 35.055 C 38.505 30.319, 37.813 30, 25 30 C 14.776 30, 13 30.232, 13 31.566 M 16 32.941 C 16 33.459, 16.450 34.160, 17 34.500 C 17.550 34.840, 18 34.416, 18 33.559 C 18 32.702, 17.550 32, 17 32 C 16.450 32, 16 32.423, 16 32.941 M 20 34.500 C 20 36.333, 20.533 37, 22 37 C 23.467 37, 24 36.333, 24 34.500 C 24 32.667, 23.467 32, 22 32 C 20.533 32, 20 32.667, 20 34.500 M 26 34.500 C 26 36.333, 26.533 37, 28 37 C 29.467 37, 30 36.333, 30 34.500 C 30 32.667, 29.467 32, 28 32 C 26.533 32, 26 32.667, 26 34.500 M 32 33.559 C 32 34.416, 32.450 34.840, 33 34.500 C 33.550 34.160, 34 33.459, 34 32.941 C 34 32.423, 33.550 32, 33 32 C 32.450 32, 32 32.702, 32 33.559" stroke="none" fill="#040404" fill-rule="evenodd"/></svg>