<svg xmlns="http://www.w3.org/2000/svg" width="50" height="50" viewBox="0 0 50 50" version="1.1"><path d="" stroke="none" fill="#080404" fill-rule="evenodd"/><path d="M 15.500 3.879 C -2.500 12.136, -2.500 37.864, 15.500 46.121 C 20.701 48.507, 29.299 48.507, 34.500 46.121 C 52.500 37.864, 52.500 12.136, 34.500 3.879 C 29.299 1.493, 20.701 1.493, 15.500 3.879 M 20.358 4.932 C 2.486 9.317, -1.157 33.377, 14.649 42.640 C 32.692 53.214, 53.214 32.692, 42.640 14.649 C 38.276 7.201, 28.495 2.936, 20.358 4.932 M 14.389 19.430 C 13.393 22.025, 14.788 24.169, 17.246 23.820 C 18.898 23.585, 19.500 22.833, 19.500 21 C 19.500 19.167, 18.898 18.415, 17.246 18.180 C 15.893 17.988, 14.750 18.488, 14.389 19.430 M 30.389 19.430 C 29.393 22.025, 30.788 24.169, 33.246 23.820 C 34.898 23.585, 35.500 22.833, 35.500 21 C 35.500 19.167, 34.898 18.415, 33.246 18.180 C 31.893 17.988, 30.750 18.488, 30.389 19.430 M 11 30.522 C 11 33.265, 19.865 38, 25 38 C 30.135 38, 39 33.265, 39 30.522 C 39 28.454, 38.710 28.541, 33.609 32.136 C 30.347 34.436, 28.049 35.273, 25 35.273 C 21.951 35.273, 19.653 34.436, 16.391 32.136 C 11.290 28.541, 11 28.454, 11 30.522" stroke="none" fill="#040404" fill-rule="evenodd"/></svg>