<svg xmlns="http://www.w3.org/2000/svg" width="50" height="50" viewBox="0 0 50 50" version="1.1"><path d="" stroke="none" fill="#080404" fill-rule="evenodd"/><path d="M 1.571 2.571 C -0.323 4.466, -0.577 9.357, 1.250 8.755 C 1.938 8.529, 2.644 7.366, 2.820 6.172 C 3.052 4.595, 3.837 4, 5.686 4 C 7.962 4, 8.161 4.293, 7.556 6.750 C 5.794 13.906, 5.756 15, 7.273 15 C 8.109 15, 9.018 13.782, 9.326 12.250 C 9.630 10.738, 10.184 8.260, 10.557 6.744 C 10.970 5.065, 10.751 3.405, 9.995 2.494 C 8.371 0.537, 3.562 0.581, 1.571 2.571 M 16.250 4.491 C 12.526 6.109, 11.699 8.633, 15.250 7.541 C 21.059 5.755, 25.944 5.198, 29.257 5.945 C 42.944 9.032, 49.680 24.338, 42.640 36.351 C 34.771 49.779, 15.223 49.768, 7.348 36.331 C 5.066 32.437, 4.663 30.645, 4.771 24.858 C 4.841 21.086, 4.519 18, 4.056 18 C 1.421 18, 1.301 29.880, 3.879 35.500 C 7.741 43.920, 15.646 48.956, 25 48.956 C 49.712 48.956, 56.988 15.195, 34.500 4.879 C 29.706 2.680, 20.850 2.491, 16.250 4.491 M 14.750 11.055 C 13.032 12.080, 12.278 15.031, 13.750 14.968 C 14.162 14.951, 15.360 14.285, 16.412 13.490 C 17.565 12.617, 19.303 12.289, 20.792 12.663 C 22.630 13.124, 23.144 12.927, 22.803 11.891 C 22.238 10.172, 17.119 9.641, 14.750 11.055 M 27.667 11.667 C 26.215 13.118, 27.124 14.186, 29.338 13.630 C 30.688 13.291, 32.485 13.655, 33.588 14.490 C 36.045 16.349, 37 16.362, 37 14.535 C 37 11.914, 29.672 9.661, 27.667 11.667 M 7.500 17 C 6.588 18.475, 7.849 19.995, 9.469 19.374 C 10.242 19.077, 10.629 18.197, 10.330 17.417 C 9.696 15.765, 8.383 15.572, 7.500 17 M 15.500 19 C 14.572 21.923, 15.854 25, 18 25 C 19.026 25, 20.151 24.100, 20.500 23 C 21.428 20.077, 20.146 17, 18 17 C 16.974 17, 15.849 17.900, 15.500 19 M 29.500 19 C 28.572 21.923, 29.854 25, 32 25 C 34.146 25, 35.428 21.923, 34.500 19 C 34.151 17.900, 33.026 17, 32 17 C 30.974 17, 29.849 17.900, 29.500 19 M 22.235 34.980 C 18.318 36.757, 16.019 39.352, 17.259 40.593 C 17.538 40.871, 19.456 39.952, 21.522 38.549 C 23.589 37.147, 26.229 35.994, 27.390 35.986 C 30.578 35.966, 34 34.877, 34 33.883 C 34 32.305, 26.611 32.994, 22.235 34.980" stroke="none" fill="#040404" fill-rule="evenodd"/></svg>