<svg xmlns="http://www.w3.org/2000/svg" width="50" height="50" viewBox="0 0 50 50" version="1.1"><path d="" stroke="none" fill="#080404" fill-rule="evenodd"/><path d="M 14.015 4.708 C 10.008 6.813, 7.726 8.891, 5.541 12.425 C -1.205 23.336, 1.942 37.978, 12.425 44.459 C 23.336 51.205, 37.978 48.058, 44.459 37.575 C 51.205 26.664, 48.058 12.022, 37.575 5.541 C 33.773 3.190, 31.324 2.473, 26.119 2.189 C 20.359 1.874, 18.789 2.201, 14.015 4.708 M 20.917 4.984 C 16.422 5.796, 10.702 9.279, 8.603 12.482 C 7.722 13.828, 7 15.170, 7 15.465 C 7 15.759, 15.100 16, 25 16 C 34.900 16, 43 15.759, 43 15.465 C 43 13.711, 39.135 9.587, 35.608 7.578 C 30.911 4.903, 26.083 4.051, 20.917 4.984 M 10.250 18.682 C 8.020 18.987, 7 19.665, 7 20.841 C 7 28.413, 19.895 30.277, 21.366 22.919 C 21.722 21.138, 21.881 19.548, 21.719 19.386 C 21.074 18.741, 13.306 18.264, 10.250 18.682 M 30.142 18.677 C 28.091 19.103, 27.865 19.576, 28.410 22.302 C 29.277 26.634, 30.419 27.481, 35.223 27.355 C 38.234 27.276, 39.881 26.630, 41.191 25.012 C 43.516 22.141, 43.547 19.003, 41.250 18.989 C 40.288 18.983, 37.925 18.800, 36 18.582 C 34.075 18.364, 31.439 18.407, 30.142 18.677 M 24 22.311 C 24 27.266, 20.941 30, 15.395 30 C 9.945 30, 7.546 28.844, 5.487 25.225 C 3.950 22.522, 3.942 22.537, 4.565 27 C 6.085 37.905, 14.365 45.333, 25 45.333 C 35.635 45.333, 43.915 37.905, 45.435 27 C 46.058 22.537, 46.050 22.522, 44.513 25.225 C 42.454 28.844, 40.055 30, 34.605 30 C 29.059 30, 26 27.266, 26 22.311 C 26 20.490, 25.550 19, 25 19 C 24.450 19, 24 20.490, 24 22.311 M 35.233 34.126 C 30.585 37.102, 25.169 38.161, 21.183 36.873 C 17.256 35.603, 15.698 36.575, 18.443 38.582 C 20.729 40.253, 28.682 40.450, 32.685 38.933 C 35.687 37.796, 40 34.195, 40 32.826 C 40 31.529, 38.760 31.867, 35.233 34.126" stroke="none" fill="#040404" fill-rule="evenodd"/></svg>