<svg xmlns="http://www.w3.org/2000/svg" width="50" height="50" viewBox="0 0 50 50" version="1.1"><path d="" stroke="none" fill="#080404" fill-rule="evenodd"/><path d="M 15.500 3.879 C -2.500 12.136, -2.500 37.864, 15.500 46.121 C 20.701 48.507, 29.299 48.507, 34.500 46.121 C 52.500 37.864, 52.500 12.136, 34.500 3.879 C 29.299 1.493, 20.701 1.493, 15.500 3.879 M 20.358 4.932 C 2.486 9.317, -1.157 33.377, 14.649 42.640 C 32.692 53.214, 53.214 32.692, 42.640 14.649 C 38.276 7.201, 28.495 2.936, 20.358 4.932 M 12.750 18.080 C 11.787 18.641, 11 19.752, 11 20.550 C 11 22.390, 11.505 22.370, 14.492 20.413 C 16.704 18.964, 17.111 18.964, 19.179 20.413 C 21.996 22.386, 23 22.418, 23 20.535 C 23 17.522, 16.416 15.945, 12.750 18.080 M 27.186 18.729 C 27.890 22.383, 37.312 22.955, 38.666 19.427 C 39.591 17.018, 38.273 16.591, 35.506 18.404 C 33.192 19.920, 32.742 19.933, 30.753 18.539 C 27.888 16.533, 26.775 16.592, 27.186 18.729 M 14.290 30.390 C 14.490 31, 16.027 31.637, 17.705 31.804 C 20.348 32.068, 20.833 32.585, 21.335 35.678 C 22.076 40.244, 24.585 43, 28 43 C 31.620 43, 34 40.117, 34 35.730 C 34 33.744, 34.450 31.840, 35 31.500 C 37.667 29.852, 35.081 29.280, 24.963 29.280 C 17.325 29.280, 14.039 29.622, 14.290 30.390 M 24.334 35.669 C 24.923 39.298, 26.562 41.261, 28.500 40.655 C 30.107 40.152, 31.812 35.999, 31.268 33.916 C 30.491 30.944, 29 31.657, 29 35 C 29 36.650, 28.539 38, 27.975 38 C 27.411 38, 26.680 36.650, 26.350 35 C 25.473 30.617, 23.614 31.234, 24.334 35.669" stroke="none" fill="#040404" fill-rule="evenodd"/></svg>