<svg xmlns="http://www.w3.org/2000/svg" width="50" height="50" viewBox="0 0 50 50" version="1.1"><path d="" stroke="none" fill="#080404" fill-rule="evenodd"/><path d="M 15.500 3.879 C -2.500 12.136, -2.500 37.864, 15.500 46.121 C 23.216 49.661, 34.732 47.863, 40.624 42.199 C 41.792 41.076, 44.042 40.009, 45.624 39.829 L 48.500 39.500 48.153 29.500 C 47.768 18.390, 46.135 13.339, 41.397 8.607 C 34.952 2.170, 23.702 0.116, 15.500 3.879 M 20.358 4.932 C 6.981 8.214, 0.435 23.534, 7.360 35.351 C 13.188 45.295, 25.932 48.443, 35.713 42.353 L 40.500 39.373 40.153 32.586 L 39.806 25.799 43.008 26.502 L 46.210 27.205 45.509 22.853 C 43.523 10.525, 31.752 2.138, 20.358 4.932 M 10.980 14.524 C 9.203 16.666, 10.524 17.538, 13.496 16.184 C 15.372 15.329, 16.628 15.329, 18.504 16.184 C 21.476 17.538, 22.797 16.666, 21.020 14.524 C 19.367 12.532, 12.633 12.532, 10.980 14.524 M 28.980 14.524 C 27.203 16.666, 28.524 17.538, 31.496 16.184 C 33.372 15.329, 34.628 15.329, 36.504 16.184 C 39.476 17.538, 40.797 16.666, 39.020 14.524 C 37.367 12.532, 30.633 12.532, 28.980 14.524 M 8.392 21.517 C 6.533 23.376, 5.957 24.877, 6.188 27.267 C 6.462 30.111, 6.855 30.500, 9.455 30.500 C 12.666 30.500, 13.707 28.569, 13.900 22.250 C 14.024 18.217, 11.966 17.943, 8.392 21.517 M 18.217 23.561 C 15.620 25.379, 13 30.049, 13 32.858 C 13 34.692, 13.754 34.815, 25 34.815 C 36.246 34.815, 37 34.692, 37 32.858 C 37 30.049, 34.380 25.379, 31.783 23.561 C 30.556 22.701, 27.509 22, 25 22 C 22.491 22, 19.444 22.701, 18.217 23.561 M 9.291 25 C 8.123 27.764, 8.678 29.722, 10.198 28.202 C 10.732 27.668, 10.984 26.166, 10.758 24.865 L 10.347 22.500 9.291 25 M 22.270 24.729 C 20.129 25.118, 16 29.337, 16 31.135 C 16 31.611, 20.050 32, 25 32 C 29.979 32, 34 31.578, 34 31.056 C 34 30.536, 32.987 29.006, 31.750 27.655 C 29.394 25.083, 26.033 24.045, 22.270 24.729 M 43.183 33 C 43.392 35.304, 44.013 36.500, 45 36.500 C 46.853 36.500, 46.457 33.119, 44.355 31 C 43.036 29.670, 42.903 29.897, 43.183 33" stroke="none" fill="#040404" fill-rule="evenodd"/></svg>