<svg xmlns="http://www.w3.org/2000/svg" width="50" height="50" viewBox="0 0 50 50" version="1.1"><path d="" stroke="none" fill="#080404" fill-rule="evenodd"/><path d="M 15.500 3.879 C -2.500 12.136, -2.500 37.864, 15.500 46.121 C 20.701 48.507, 29.299 48.507, 34.500 46.121 C 52.500 37.864, 52.500 12.136, 34.500 3.879 C 29.299 1.493, 20.701 1.493, 15.500 3.879 M 20.358 4.932 C 2.486 9.317, -1.157 33.377, 14.649 42.640 C 32.692 53.214, 53.214 32.692, 42.640 14.649 C 38.276 7.201, 28.495 2.936, 20.358 4.932 M 18.053 23.436 C 17.398 24.225, 15.543 25.161, 13.931 25.515 C 10.172 26.341, 10.128 28, 13.865 28 C 16.711 28, 22 24.702, 22 22.927 C 22 21.495, 19.385 21.831, 18.053 23.436 M 28 22.927 C 28 24.702, 33.289 28, 36.135 28 C 39.872 28, 39.828 26.341, 36.069 25.515 C 34.457 25.161, 32.602 24.225, 31.947 23.436 C 30.615 21.831, 28 21.495, 28 22.927 M 18.635 35.073 C 17.186 36.212, 16 37.787, 16 38.573 C 16 40.558, 16.989 40.359, 19.677 37.833 C 20.991 36.600, 23.283 35.667, 25 35.667 C 26.717 35.667, 29.009 36.600, 30.323 37.833 C 33.011 40.359, 34 40.558, 34 38.573 C 34 37.787, 32.814 36.212, 31.365 35.073 C 27.906 32.351, 22.094 32.351, 18.635 35.073" stroke="none" fill="#040404" fill-rule="evenodd"/></svg>