<svg xmlns="http://www.w3.org/2000/svg" width="50" height="50" viewBox="0 0 50 50" version="1.1"><path d="" stroke="none" fill="#080404" fill-rule="evenodd"/><path d="M 15.500 3.879 C 0.944 10.556, -2.667 30.194, 8.607 41.367 C 11.469 44.203, 22.476 50, 25 50 C 27.524 50, 38.531 44.203, 41.393 41.367 C 50.163 32.676, 50.163 17.377, 41.393 8.607 C 34.958 2.171, 23.702 0.116, 15.500 3.879 M 20.358 4.932 C 6.433 8.349, 0.048 24.689, 8.066 36.391 C 10.146 39.428, 15.703 44, 17.312 44 C 18.955 44, 17.811 40.075, 16 39.500 C 12.841 38.497, 13.405 34.359, 16.950 32.526 C 20.742 30.565, 29.258 30.565, 33.050 32.526 C 36.493 34.306, 36.931 37.401, 34 39.232 C 32.139 40.394, 31.147 44, 32.688 44 C 34.297 44, 39.854 39.428, 41.934 36.391 C 46.571 29.624, 46.721 21.900, 42.362 14.277 C 38.330 7.226, 28.327 2.978, 20.358 4.932 M 13 21.031 C 13 21.599, 13.787 22.365, 14.750 22.735 C 16.232 23.305, 16.129 23.496, 14.074 23.982 C 12.740 24.297, 11.443 25.172, 11.191 25.927 C 10.829 27.014, 11.624 27.156, 15.022 26.613 C 21.995 25.497, 22.874 24.020, 18.050 21.526 C 14.607 19.745, 13 19.588, 13 21.031 M 31.750 21.572 C 27.160 24.062, 28.088 25.511, 34.978 26.613 C 38.376 27.156, 39.171 27.014, 38.809 25.927 C 38.557 25.172, 37.260 24.297, 35.926 23.982 C 33.871 23.496, 33.768 23.305, 35.250 22.735 C 37.255 21.965, 37.623 19.980, 35.750 20.040 C 35.063 20.062, 33.263 20.751, 31.750 21.572 M 20.303 36.654 C 19.953 37.564, 20.305 40.151, 21.084 42.404 C 23.063 48.129, 26.430 48.608, 28.577 43.470 C 30.443 39.005, 30.106 35.636, 27.750 35.187 C 26.315 34.913, 26 35.587, 26 38.927 C 26 41.167, 25.550 43, 25 43 C 24.450 43, 24 41.200, 24 39 C 24 36.075, 23.589 35, 22.469 35 C 21.626 35, 20.652 35.744, 20.303 36.654" stroke="none" fill="#040404" fill-rule="evenodd"/></svg>