<svg xmlns="http://www.w3.org/2000/svg" width="50" height="50" viewBox="0 0 50 50" version="1.1"><path d="" stroke="none" fill="#080404" fill-rule="evenodd"/><path d="M 15.500 3.879 C -2.500 12.136, -2.500 37.864, 15.500 46.121 C 20.701 48.507, 29.299 48.507, 34.500 46.121 C 52.500 37.864, 52.500 12.136, 34.500 3.879 C 29.299 1.493, 20.701 1.493, 15.500 3.879 M 20.358 4.932 C 2.486 9.317, -1.157 33.377, 14.649 42.640 C 32.692 53.214, 53.214 32.692, 42.640 14.649 C 38.276 7.201, 28.495 2.936, 20.358 4.932 M 12.246 14.154 C 10.881 15.519, 10.556 18.019, 11.750 17.968 C 12.162 17.951, 13.370 17.278, 14.434 16.474 C 16.138 15.185, 16.653 15.198, 18.771 16.585 C 21.548 18.405, 22.913 17.677, 21.363 15.202 C 20.067 13.133, 13.968 12.432, 12.246 14.154 M 29.246 14.154 C 27.881 15.519, 27.556 18.019, 28.750 17.968 C 29.163 17.951, 30.370 17.278, 31.434 16.474 C 33.138 15.185, 33.653 15.198, 35.771 16.585 C 38.548 18.405, 39.913 17.677, 38.363 15.202 C 37.067 13.133, 30.968 12.432, 29.246 14.154 M 13 26.532 C 13 31.029, 15.187 36.278, 18.400 39.490 C 20.261 41.352, 21.966 42, 25 42 C 28.034 42, 29.739 41.352, 31.600 39.490 C 34.813 36.278, 37 31.029, 37 26.532 L 37 23 25 23 L 13 23 13 26.532 M 16 27.766 C 16 31.664, 19.221 37.263, 22.351 38.805 C 24.529 39.877, 25.471 39.877, 27.649 38.805 C 30.779 37.263, 34 31.664, 34 27.766 L 34 25 25 25 L 16 25 16 27.766" stroke="none" fill="#040404" fill-rule="evenodd"/></svg>