<svg xmlns="http://www.w3.org/2000/svg" width="50" height="50" viewBox="0 0 50 50" version="1.1"><path d="" stroke="none" fill="#080404" fill-rule="evenodd"/><path d="M 15.500 3.879 C -2.500 12.136, -2.500 37.864, 15.500 46.121 C 20.701 48.507, 29.299 48.507, 34.500 46.121 C 52.500 37.864, 52.500 12.136, 34.500 3.879 C 29.299 1.493, 20.701 1.493, 15.500 3.879 M 20.358 4.932 C 2.486 9.317, -1.157 33.377, 14.649 42.640 C 32.692 53.214, 53.214 32.692, 42.640 14.649 C 38.276 7.201, 28.495 2.936, 20.358 4.932 M 10.980 19.524 C 9.203 21.666, 10.524 22.538, 13.496 21.184 C 15.372 20.329, 16.628 20.329, 18.504 21.184 C 21.476 22.538, 22.797 21.666, 21.020 19.524 C 19.367 17.532, 12.633 17.532, 10.980 19.524 M 28.980 19.524 C 27.203 21.666, 28.524 22.538, 31.496 21.184 C 33.372 20.329, 34.628 20.329, 36.504 21.184 C 39.476 22.538, 40.797 21.666, 39.020 19.524 C 37.367 17.532, 30.633 17.532, 28.980 19.524 M 11 26.423 C 11 29.139, 14.752 35.660, 17.607 37.905 C 19.457 39.361, 21.713 40, 25 40 C 30.621 40, 34.111 37.663, 37.028 31.945 C 39.725 26.658, 39.637 24.586, 36.750 25.407 C 35.513 25.759, 32.362 26.474, 29.750 26.997 C 25.351 27.878, 20.189 27.380, 13.250 25.407 C 11.565 24.927, 11 25.182, 11 26.423 M 15 30.234 C 15 30.638, 16.267 32.387, 17.816 34.121 C 20.162 36.746, 21.363 37.273, 25 37.273 C 28.637 37.273, 29.838 36.746, 32.184 34.121 C 33.733 32.387, 35 30.638, 35 30.234 C 35 29.830, 30.500 29.500, 25 29.500 C 19.500 29.500, 15 29.830, 15 30.234" stroke="none" fill="#040404" fill-rule="evenodd"/></svg>