<svg xmlns="http://www.w3.org/2000/svg" width="50" height="50" viewBox="0 0 50 50" version="1.1"><path d="" stroke="none" fill="#080404" fill-rule="evenodd"/><path d="M 15.500 3.879 C 4.419 8.962, -0.935 22.199, 3.426 33.730 C 4.210 35.803, 5.143 40.088, 5.498 43.250 C 6.586 52.933, 8.259 50.099, 7.859 39.250 C 7.571 31.414, 7.773 29.500, 8.892 29.500 C 11.414 29.500, 13.918 34.390, 15.022 41.471 C 16.166 48.805, 16.665 50.061, 17.804 48.471 C 18.613 47.342, 32.004 47.133, 32.002 48.250 C 32.001 48.663, 32.396 49, 32.879 49 C 33.363 49, 34.239 45.765, 34.825 41.810 C 35.900 34.574, 38.489 29.500, 41.108 29.500 C 42.227 29.500, 42.428 31.410, 42.134 39.250 C 41.718 50.305, 43.364 52.786, 44.518 42.844 C 44.911 39.458, 45.855 35.197, 46.616 33.376 C 49.810 25.733, 47.482 14.696, 41.393 8.607 C 34.958 2.171, 23.702 0.116, 15.500 3.879 M 20.358 4.932 C 11.911 7.005, 5.348 14.617, 4.795 22.984 L 4.500 27.447 8.042 27.165 C 10.489 26.970, 12.104 27.457, 13.266 28.741 C 15.389 31.087, 18 38.397, 18 41.995 C 18 44.355, 18.489 44.818, 21.500 45.306 C 23.425 45.619, 26.575 45.619, 28.500 45.306 C 31.618 44.800, 32.005 44.398, 32.044 41.619 C 32.101 37.593, 34.316 31.413, 36.613 28.875 C 37.896 27.457, 39.438 26.964, 41.958 27.165 L 45.500 27.447 45.205 22.984 C 44.425 11.194, 31.908 2.099, 20.358 4.932 M 15.500 16 C 14.572 18.923, 15.854 22, 18 22 C 19.026 22, 20.151 21.100, 20.500 20 C 21.428 17.077, 20.146 14, 18 14 C 16.974 14, 15.849 14.900, 15.500 16 M 29.500 16 C 28.572 18.923, 29.854 22, 32 22 C 34.146 22, 35.428 18.923, 34.500 16 C 34.151 14.900, 33.026 14, 32 14 C 30.974 14, 29.849 14.900, 29.500 16 M 20.557 26.223 C 19.701 27.445, 19 30.045, 19 32 C 19 36.825, 21.381 40, 25 40 C 28.619 40, 31 36.825, 31 32 C 31 27.175, 28.619 24, 25 24 C 23.151 24, 21.554 24.799, 20.557 26.223 M 22.956 27.553 C 21.145 29.735, 21.352 34.780, 23.333 36.762 C 24.889 38.317, 25.111 38.317, 26.667 36.762 C 29.441 33.988, 28.203 26, 25 26 C 24.585 26, 23.665 26.699, 22.956 27.553" stroke="none" fill="#040404" fill-rule="evenodd"/></svg>